<?xml version="1.0" encoding="utf-8"?>
<!-- Generator: Adobe Illustrator 25.2.1, SVG Export Plug-In . SVG Version: 6.00 Build 0)  -->
<svg version="1.1" id="Layer_1" xmlns="http://www.w3.org/2000/svg" xmlns:xlink="http://www.w3.org/1999/xlink" x="0px" y="0px"
	 viewBox="0 0 100 100" style="enable-background:new 0 0 100 100;" xml:space="preserve">
<style type="text/css">
	.st0{fill:#FFFFFF;}
</style>
<g>
	<path class="st0" d="M99.6,50.1C99.6,22.7,77.4,0.5,50,0.5S0.4,22.7,0.4,50.1c0,24.7,18.1,45.3,41.8,48.9V64.4H29.5V50.1h12.7v-11
		C42.2,26.7,49.6,20,61,20c5.5,0,11.2,1.1,11.2,1.1v12.2h-6.3c-6.1,0-8,3.8-8,7.8v9.3h13.7l-2.1,14.3H57.8v34.6
		C81.4,95.4,99.6,74.8,99.6,50.1z"/>
	<path d="M69.2,64.4l2.1-14.3H57.6v-9.3c0-4,1.9-7.8,8-7.8h6.3V20.8c0,0-5.7-1.1-11.2-1.1c-11.4,0-18.8,7-18.8,19.2v11H29.3v14.3H42
		v34.6c2.5,0.4,5.1,0.6,7.8,0.6c2.5,0,5.3-0.2,7.8-0.6V64.4H69.2z"/>
</g>
</svg>
