<?xml version="1.0" encoding="utf-8"?>
<!-- Generator: Adobe Illustrator 25.2.1, SVG Export Plug-In . SVG Version: 6.00 Build 0)  -->
<svg version="1.1" id="Layer_1" xmlns="http://www.w3.org/2000/svg" xmlns:xlink="http://www.w3.org/1999/xlink" x="0px" y="0px"
	 viewBox="0 0 100 100" style="enable-background:new 0 0 100 100;" xml:space="preserve">
<style type="text/css">
	.st0{fill:#FFFFFF;}
</style>
<g>
	<circle class="st0" cx="50" cy="50" r="49.8"/>
	<g>
		<g>
			<path d="M66.6,29.8c-2,0-3.7,1.6-3.7,3.7c0,2,1.6,3.7,3.7,3.7c2,0,3.7-1.6,3.7-3.7C70.2,31.4,68.6,29.8,66.6,29.8z"/>
			<path d="M50.2,34.5c-8.5,0-15.5,7-15.5,15.5s7,15.5,15.5,15.5s15.5-7,15.5-15.5C65.7,41.4,58.8,34.5,50.2,34.5z M50.2,59.8
				c-5.5,0-9.9-4.4-9.9-9.9s4.4-9.9,9.9-9.9s9.9,4.4,9.9,9.9S55.7,59.8,50.2,59.8z"/>
			<path d="M62.6,81.3h-25c-10.4,0-18.8-8.5-18.8-18.8v-25c0-10.4,8.5-18.8,18.8-18.8h25c10.4,0,18.8,8.5,18.8,18.8v25
				C81.4,72.8,72.9,81.3,62.6,81.3z M37.5,24.4c-7.1,0-12.9,5.8-12.9,12.9v25c0,7.1,5.8,12.9,12.9,12.9h25c7.1,0,12.9-5.8,12.9-12.9
				V37.4c0-7.1-5.8-12.9-12.9-12.9h-25V24.4z"/>
		</g>
	</g>
</g>
</svg>
