<?xml version="1.0" encoding="utf-8"?>
<!-- Generator: Adobe Illustrator 25.2.1, SVG Export Plug-In . SVG Version: 6.00 Build 0)  -->
<svg version="1.1" id="Layer_1" xmlns="http://www.w3.org/2000/svg" xmlns:xlink="http://www.w3.org/1999/xlink" x="0px" y="0px"
	 viewBox="0 0 1718.8 238" style="enable-background:new 0 0 1718.8 238;" xml:space="preserve">
<style type="text/css">
	.st0{fill:#FFFFFF;}
	.st1{display:none;fill:none;stroke:#000000;stroke-width:5;stroke-linecap:round;stroke-miterlimit:10;}
</style>
<g>
	<g>
		<g>
			<path class="st0" d="M1510.2,182.8v-43.7c0-13.9-3.6-27.6-10.3-39.8l-47-84.6c-0.4-0.8-0.6-1.5-0.6-2.2c0-4.5,10.9-4.6,21.8-4.6
				c12.2,0,24.4,0,26.4,4.2l31.8,59.8l31.8-59.9c1.8-4.1,14.1-4.1,26.3-4.1c10.9,0,21.7,0,21.7,4.6c0,0.6-0.2,1.4-0.6,2.2l-47,84.8
				c-6.7,12.1-10.3,25.8-10.3,39.7v43.5c0,5.4-11,5.4-22.1,5.4S1510.2,188.1,1510.2,182.8z"/>
			<g>
				<path class="st0" d="M580,220.3c-1.4-5.5-2.4-11.3-2.4-15.8c0-3.6,0.8-6.3,2.6-6.8c11.8-3.5,19.2-11.7,19.2-22.7l-0.1-161.7
					c0-5.1,11.2-5.3,22.2-5.3c10.9,0,22.1,0.1,22.1,5.3v163.6c0,32.5-25.8,54.6-51.8,61.1C586.5,239,582.5,230.7,580,220.3z"/>
				<path class="st0" d="M670,98.1c0-50.4,41.3-91.4,92.2-91.4c50.9,0,92.3,40.9,92.3,91.4c0,50.6-41.3,91.5-92.3,91.5
					C711.3,189.6,670,148.7,670,98.1z M806.8,98.1c0-26.2-19.1-46.4-44.5-46.4c-25.4,0-44.6,20.3-44.6,46.4
					c0,26,19.2,46.6,44.6,46.6C787.7,144.7,806.8,124.2,806.8,98.1z"/>
				<path class="st0" d="M882.5,182.8V13.3c0-5.1,10.9-5.3,22.1-5.3c11,0,21.9,0.1,21.9,5.3v58.5c0,0.9,0.8,1.7,1.7,1.7h73.6
					c0.9,0,1.7-0.8,1.7-1.7V13.3c0-5.1,11-5.3,21.9-5.3c11,0,22.1,0.1,22.1,5.3v169.4c0,5.3-11,5.4-22.1,5.4
					c-10.9,0-21.9-0.1-21.9-5.3v-65c0-0.9-0.8-1.7-1.7-1.7h-73.6c-0.9,0-1.7,0.8-1.7,1.7v64.9c0,5.3-10.9,5.4-21.9,5.4
					C893.4,188.1,882.5,187.9,882.5,182.8z"/>
				<path class="st0" d="M1228.5,188.1l-97-93.7v88.3c0,5.4-10.9,5.4-21.9,5.4s-21.9,0-21.9-5.3V10.2c0-3.8,3.1-3.8,6.3-3.8
					c3.1,0,6.2,0,8.1,1.7l96.7,95.7V13.3c0-5.3,10.9-5.3,21.9-5.3c11.2,0,22.1,0,22.1,5.3v172.5c0,4-3,4-6.2,4
					C1233.5,189.7,1230.3,189.7,1228.5,188.1z"/>
				<path class="st0" d="M1423.7,188.1l-97-93.7v88.3c0,5.4-10.9,5.4-21.9,5.4s-21.9,0-21.9-5.3V10.2c0-3.8,3.1-3.8,6.3-3.8
					c3.1,0,6.2,0,8.1,1.7l96.7,95.7V13.3c0-5.3,10.9-5.3,21.9-5.3c11.2,0,22.1,0,22.1,5.3v172.5c0,4-3,4-6.2,4
					C1428.7,189.7,1425.5,189.7,1423.7,188.1z"/>
			</g>
		</g>
		<g>
			<path class="st0" d="M226.7,190.6V13.2l120.5-0.1c5.5,0,5.6,10.5,5.6,21.2c0,10.8-0.1,21.4-5.6,21.4h-76.5v24.8H334
				c5.3,0,5.4,9.4,5.4,18.6c0,9.4-0.1,18.7-5.4,18.7h-63.3V148l76.4-0.1c5.7,0,5.8,10.6,5.8,21.4c0,10.5-0.1,21.3-5.6,21.3H226.7z"
				/>
			<path class="st0" d="M424,186.7V143c0-13.9-3.6-27.6-10.3-39.8l-47-84.6c-0.4-0.8-0.6-1.5-0.6-2.2c0-4.5,10.9-4.6,21.8-4.6
				c12.2,0,24.4,0,26.4,4.2L446,75.8l31.8-59.9c1.8-4.1,14.1-4.1,26.3-4.1c10.9,0,21.7,0,21.7,4.6c0,0.6-0.2,1.4-0.6,2.2l-47,84.8
				c-6.7,12.1-10.3,25.8-10.3,39.7v43.5c0,5.4-11,5.4-22.1,5.4S424,191.9,424,186.7z"/>
			<g>
				<path class="st0" d="M16.1,186.6V17.1c0-5.1,10.9-5.3,22.1-5.3c11,0,21.9,0.1,21.9,5.3v60.2h77V17.1c0-5.1,11-5.3,21.9-5.3
					c11,0,22.1,0.1,22.1,5.3v169.4c0,5.3-11,5.4-22.1,5.4c-10.9,0-21.9-0.1-21.9-5.3v-66.7h-77v66.6c0,5.3-10.9,5.4-21.9,5.4
					C27,191.9,16.1,191.7,16.1,186.6z"/>
			</g>
		</g>
	</g>
	<g>
		<path class="st0" d="M1660.8,154.2c0.5-0.7,1.1-1.4,1.9-2c27.4-21,58.8,11.1,37.4,38.6c-0.6,0.8-1.3,1.4-2.1,1.9
			C1670.5,210.3,1642.6,180.7,1660.8,154.2z M1665.1,127.9l-7.7-115.6c-0.1-1.6,1.2-3,2.9-3l41.5-0.1c1.6,0,2.9,1.3,2.9,3
			l-7.7,115.7H1665.1z"/>
	</g>
</g>
<polygon class="st1" points="1753.8,134 1800.6,134 1800.6,-198.4 12.8,-198.4 12.8,134 1466.2,134 "/>
</svg>
