<?xml version="1.0" encoding="utf-8"?>
<!-- Generator: Adobe Illustrator 25.2.1, SVG Export Plug-In . SVG Version: 6.00 Build 0)  -->
<svg version="1.1" id="Layer_1" xmlns="http://www.w3.org/2000/svg" xmlns:xlink="http://www.w3.org/1999/xlink" x="0px" y="0px"
	 viewBox="0 0 100 100" style="enable-background:new 0 0 100 100;" xml:space="preserve">
<style type="text/css">
	.st0{display:none;}
	.st1{display:inline;fill:#FFFFFF;}
	.st2{display:inline;}
	.st3{fill:#FFFFFF;}
</style>
<g class="st0">
	<circle class="st1" cx="50.2" cy="49.8" r="42.8"/>
	<g class="st2">
		<g>
			<path d="M64.5,32.4c-1.7,0-3.2,1.4-3.2,3.2c0,1.7,1.4,3.2,3.2,3.2c1.7,0,3.2-1.4,3.2-3.2C67.6,33.8,66.2,32.4,64.5,32.4z"/>
			<path d="M50.4,36.5c-7.3,0-13.3,6-13.3,13.3s6,13.3,13.3,13.3s13.3-6,13.3-13.3C63.7,42.4,57.8,36.5,50.4,36.5z M50.4,58.2
				c-4.7,0-8.5-3.8-8.5-8.5s3.8-8.5,8.5-8.5s8.5,3.8,8.5,8.5S55.1,58.2,50.4,58.2z"/>
			<path d="M61,76.7H39.5c-8.9,0-16.2-7.3-16.2-16.2V39c0-8.9,7.3-16.2,16.2-16.2H61c8.9,0,16.2,7.3,16.2,16.2v21.5
				C77.2,69.4,69.9,76.7,61,76.7z M39.5,27.8c-6.1,0-11.1,5-11.1,11.1v21.5c0,6.1,5,11.1,11.1,11.1H61c6.1,0,11.1-5,11.1-11.1V39
				c0-6.1-5-11.1-11.1-11.1H39.5V27.8z"/>
		</g>
	</g>
</g>
<g class="st0">
	<circle class="st2" cx="50" cy="50" r="30"/>
	<path class="st1" d="M65.6,46.5c-0.3,0-0.6,0-0.9,0c-3.4,0-6.5-1.7-8.4-4.5v15.4c0,6.3-5.1,11.4-11.4,11.4s-11.4-5.1-11.4-11.4
		S38.6,46,44.9,46l0,0c0.2,0,0.5,0,0.7,0v5.6c-0.2,0-0.5-0.1-0.7-0.1c-3.2,0-5.8,2.6-5.8,5.8s2.6,5.8,5.8,5.8s6.1-2.5,6.1-5.8l0-26
		h5.4c0.5,4.8,4.4,8.6,9.2,8.9V46.5"/>
</g>
<g>
	<circle class="st3" cx="50" cy="50" r="30"/>
	<path d="M61.6,62c-0.3,0.6-0.9,0.9-1.6,0.9c-0.3,0-0.6-0.1-0.9-0.2c-4.8-2.8-10.3-3.2-14.1-3.1c-4.2,0.1-7.3,1-7.3,1
		c-1,0.3-2-0.3-2.2-1.3c-0.3-1,0.3-2,1.3-2.2c0.1,0,3.4-0.9,8.1-1.1c2.7-0.1,5.3,0.1,7.8,0.6c3.1,0.6,5.9,1.6,8.4,3.1
		C61.8,60,62.1,61.1,61.6,62z"/>
	<path d="M64.9,55c-0.4,0.7-1.1,1.1-1.9,1.1c-0.4,0-0.7-0.1-1.1-0.3c-5.7-3.3-12.2-3.8-16.7-3.7c-5,0.2-8.6,1.1-8.7,1.1
		c-1.1,0.3-2.3-0.4-2.6-1.5s0.4-2.3,1.5-2.6c0.2,0,4.1-1.1,9.5-1.3c3.2-0.1,6.3,0.1,9.2,0.7c3.7,0.7,7,1.9,9.9,3.6
		C65.2,52.6,65.5,53.9,64.9,55z"/>
	<path d="M67,48.6c-0.5,0-0.9-0.1-1.3-0.4c-13.4-7.9-30.9-3.2-31.1-3.1c-1.4,0.4-2.9-0.4-3.2-1.8c-0.4-1.4,0.4-2.9,1.8-3.2
		c0.2-0.1,5-1.4,11.7-1.6c3.9-0.1,7.7,0.1,11.3,0.8c4.5,0.9,8.6,2.3,12.2,4.4c1.3,0.7,1.7,2.4,0.9,3.6C68.8,48.1,67.9,48.6,67,48.6z
		"/>
</g>
</svg>
